<svg xmlns="http://www.w3.org/2000/svg" xmlns:svg="http://www.w3.org/2000/svg" id="svg14" width="24" height="24" version="1.1"><metadata id="metadata20"/><circle style="fill:#fff;fill-opacity:1;stroke:#497db4;stroke-width:1.74097;stroke-linecap:round;stroke-linejoin:round;stroke-miterlimit:4;stroke-dasharray:none;stroke-dashoffset:.680315;stroke-opacity:1;paint-order:normal" id="path840" cx="12.005" cy="12.005" r="11.007"/><circle style="fill:#497db4;fill-opacity:1;stroke:none;stroke-width:2.80703;stroke-linecap:round;stroke-linejoin:round;stroke-miterlimit:4;stroke-dasharray:none;stroke-dashoffset:.680315;stroke-opacity:1;paint-order:stroke fill markers" id="circle842" cx="12.005" cy="12.005" r="8.305"/><g id="text846" aria-label="i" style="font-style:normal;font-variant:normal;font-weight:400;font-stretch:normal;font-size:18.6667px;line-height:1.25;font-family:Elephant;-inkscape-font-specification:Elephant;letter-spacing:0;word-spacing:0;fill:#fff;fill-opacity:1;stroke:none"><path id="path838" d="M 15.066087,18.864759 H 9.0180756 v -0.298667 l 0.4480008,-0.01867 q 0.5413346,-0.056 0.6533346,-0.261334 0.112,-0.205334 0.112,-0.896002 l 0.01867,-0.858668 v -4.461341 l -0.01867,-0.765335 q -0.03733,-0.448001 -0.112,-0.672001 Q 10.044741,10.40874 9.4474097,10.35274 L 8.9434088,10.31541 v -0.298668 h 4.8906752 v 6.514679 l 0.01867,0.858668 q 0,0.672001 0.112,0.896002 0.112,0.205333 0.653335,0.261334 l 0.448001,0.01867 z M 10.212744,6.8994045 q 0,-0.7280013 0.522668,-1.2320022 0.541334,-0.5226676 1.288002,-0.5226676 0.765335,0 1.288003,0.5040009 0.541334,0.4853342 0.541334,1.2506689 0,0.746668 -0.541334,1.2693356 -0.522668,0.5040009 -1.288003,0.5040009 -0.746668,0 -1.288002,-0.5040009 -0.522668,-0.5226676 -0.522668,-1.2693356 z"/></g></svg>