<svg xmlns="http://www.w3.org/2000/svg" xmlns:svg="http://www.w3.org/2000/svg" id="svg6315" width="24" height="24" version="1.1"><metadata id="metadata6321"/><path id="path6305" fill="#e6e6e6" stroke="#505050" stroke-dashoffset="7" stroke-linecap="round" stroke-linejoin="round" stroke-width=".752" d="M17.961 7A5.961 6.074 0 0 1 12 13.074 5.961 6.074 0 0 1 6.039 7 5.961 6.074 0 0 1 12 .926 5.961 6.074 0 0 1 17.961 7z" opacity=".8" transform="matrix(1.40036 0 0 1.3742 -1.674 -.75)"/><path id="path6307" fill="#ffcc30" fill-rule="evenodd" stroke="#505050" stroke-linejoin="round" stroke-width="1.043" d="M7.826 14.088c0 2.086 2.087 2.086 2.087 2.086l-7.304 7.304-2.087-2.087z"/><path id="path6309" fill-rule="evenodd" stroke="#505050" stroke-linejoin="round" stroke-width="1.043" d="M6.26 15.653l2.088-2.087 2.087 2.087-2.087 2.087z"/><path id="path6311" fill="#fcffff" fill-rule="evenodd" d="M10.435 4.175c2.087-3.13 4.635-3.545 6.26-2.087 1.626 1.46-2.086 1.044-4.173 3.13-2.087 2.088 0 6.261-2.087 6.261s-2.087-4.173 0-7.304z" opacity=".7"/><path id="path6313" stroke="#fcffff" stroke-linecap="round" stroke-linejoin="round" stroke-width="1.043" d="M2.087 20.87l4.174-4.174" opacity=".5" overflow="visible"/><path id="path4570" d="m 10.775096,12.748457 c 0.150182,-4.9155609 1.207821,-7.1415965 4.861829,-6.841616 3.652735,0.298693 4.474918,2.6766501 4.322191,7.593498" style="fill:none;stroke:#888a85;stroke-width:3.00050473;stroke-linecap:square;stroke-linejoin:round"/><path id="path4572" d="m 10.756005,12.748457 c 0.152728,-4.9155609 1.209094,-7.1982452 4.861829,-6.8982647 3.652735,0.298693 4.474918,2.7332988 4.323464,7.6501467" style="fill:none;stroke:#8bf11e;stroke-width:1;stroke-linecap:square;stroke-linejoin:round;fill-opacity:1;stroke-miterlimit:4;stroke-dasharray:none;stroke-opacity:1"/><rect id="rect4574" width="14" height="9.012" x="8.348" y="13.566" rx=".846" ry="1" style="fill:#a4f11e;stroke:#c4a000;stroke-width:1;stroke-linecap:square;fill-opacity:1;stroke-miterlimit:4;stroke-dasharray:none"/></svg>