<svg xmlns="http://www.w3.org/2000/svg" xmlns:svg="http://www.w3.org/2000/svg" id="svg6315" width="24" height="24" version="1.1"><metadata id="metadata6321"/><path id="path6305" fill="#e6e6e6" stroke="#505050" stroke-dashoffset="7" stroke-linecap="round" stroke-linejoin="round" stroke-width=".752" d="M17.961 7A5.961 6.074 0 0 1 12 13.074 5.961 6.074 0 0 1 6.039 7 5.961 6.074 0 0 1 12 .926 5.961 6.074 0 0 1 17.961 7z" opacity=".8" transform="matrix(1.40036 0 0 1.3742 -1.674 -.75)"/><path id="path6307" fill="#ffcc30" fill-rule="evenodd" stroke="#505050" stroke-linejoin="round" stroke-width="1.043" d="M7.826 14.088c0 2.086 2.087 2.086 2.087 2.086l-7.304 7.304-2.087-2.087z"/><path id="path6309" fill-rule="evenodd" stroke="#505050" stroke-linejoin="round" stroke-width="1.043" d="M6.26 15.653l2.088-2.087 2.087 2.087-2.087 2.087z"/><path id="path6311" fill="#fcffff" fill-rule="evenodd" d="M10.435 4.175c2.087-3.13 4.635-3.545 6.26-2.087 1.626 1.46-2.086 1.044-4.173 3.13-2.087 2.088 0 6.261-2.087 6.261s-2.087-4.173 0-7.304z" opacity=".7"/><path id="path6313" stroke="#fcffff" stroke-linecap="round" stroke-linejoin="round" stroke-width="1.043" d="M2.087 20.87l4.174-4.174" opacity=".5" overflow="visible"/><g style="stroke-width:.78600001;stroke-linecap:square" id="g5159" transform="matrix(1.27273,0,0,1.27293,5.166175,-16.347855)"><path style="fill:none;stroke:#888a85;stroke-width:2.35700011;stroke-linejoin:round" id="path5153" d="m 6,19.216 c 0.665,-0.947 2.307,-2.405 4.562,-1.009 2.37,1.636 1.974,3.68 -0.039,6.928"/><path style="fill:none;stroke:#eeeeec;stroke-linejoin:round" id="path5155" d="M 6,19.216 C 7,18 8.193,16.57 10.562,18.207 c 2.37,1.636 1.974,3.68 -0.039,6.928"/><rect style="fill:#f1db1e;stroke:#c4a000" id="rect5157" width="11" height="7" x="2.5" y="23.5" rx=".665" ry=".786"/></g></svg>