<svg xmlns="http://www.w3.org/2000/svg" width="24" height="24"><g stroke="#505050" stroke-linejoin="round"><path fill="#e6e6e6" stroke-dashoffset="7" stroke-linecap="round" stroke-width=".752" d="m 17.961 7 a 5.961 6.074 0 0 1 -5.961 6.074 5.961 6.074 0 0 1 -5.961 -6.074 5.961 6.074 0 0 1 5.961 -6.074 5.961 6.074 0 0 1 5.961 6.074 z" opacity=".8" transform="matrix(1.40036 0 0 1.3742 -1.674 -.75)"/><path fill="#ffcc30" fill-rule="evenodd" stroke-width="1.043" d="m 7.826 14.088 c 0 2.086 2.087 2.086 2.087 2.086 l -7.304 7.304 -2.087 -2.087 z"/><path fill-rule="evenodd" stroke-width="1.043" d="m 6.26 15.653 2.088 -2.087 2.087 2.087 -2.087 2.087 z"/></g><path fill="#fcffff" fill-rule="evenodd" d="m 10.435 4.175 c 2.087 -3.13 4.635 -3.545 6.26 -2.087 1.626 1.46 -2.086 1.044 -4.173 3.13 -2.087 2.088 0 6.261 -2.087 6.261 s -2.087 -4.173 0 -7.304 z" opacity=".7"/><path stroke="#fcffff" stroke-linecap="round" stroke-linejoin="round" stroke-width="1.043" d="m 2.087 20.87 4.174 -4.174" opacity=".5"/><g stroke-linecap="square" stroke-width=".786" transform="matrix(1.27273 0 0 1.27293 5.166175 -16.347855)"><path fill="none" stroke="#888a85" stroke-linejoin="round" stroke-width="2.357" d="m 6 19.216 c .665 -.947 2.307 -2.405 4.562 -1.009 2.37 1.636 1.974 3.68 -.039 6.928"/><path fill="none" stroke="#eeeeec" stroke-linejoin="round" d="m 6 19.216 c 1 -1.216 2.193 -2.646 4.562 -1.009 2.37 1.636 1.974 3.68 -.039 6.928"/><rect width="11" height="7" x="2.5" y="23.5" fill="#f1db1e" stroke="#c4a000" rx=".665" ry=".786"/></g></svg>