<svg xmlns="http://www.w3.org/2000/svg" width="24" height="24"><g stroke="#505050"><path d="m 17.961 7 a 5.961 6.074 0 0 1 -5.961 6.074 5.961 6.074 0 0 1 -5.961 -6.074 5.961 6.074 0 0 1 5.961 -6.074 5.961 6.074 0 0 1 5.961 6.074 z" transform="matrix(1.40036 0 0 1.3742 -1.674 -.75)" style="opacity:.8;fill:#e6e6e6;stroke-width:.752;stroke-linecap:round;stroke-linejoin:round;stroke-dashoffset:7"/><path fill="#ffcc30" fill-rule="evenodd" stroke-linejoin="round" stroke-width="1.043" d="m 7.826 14.088 c 0 2.086 2.087 2.086 2.087 2.086 l -7.304 7.304 -2.087 -2.087 z"/><path fill-rule="evenodd" stroke-linejoin="round" stroke-width="1.043" d="m 6.26 15.653 2.088 -2.087 2.087 2.087 -2.087 2.087 z"/></g><path fill="#fcffff" fill-rule="evenodd" d="m 10.435 4.175 c 2.087 -3.13 4.635 -3.545 6.26 -2.087 1.626 1.46 -2.086 1.044 -4.173 3.13 -2.087 2.088 0 6.261 -2.087 6.261 s -2.087 -4.173 0 -7.304 z" opacity=".7"/><path stroke="#fcffff" stroke-linecap="round" stroke-linejoin="round" stroke-width="1.043" d="m 2.087 20.87 4.174 -4.174" opacity=".5"/><path fill="none" stroke="#888a85" stroke-linecap="square" stroke-linejoin="round" stroke-width="3.001" d="m 10.775096 12.748457 c .150182 -4.9155609 1.207821 -7.1415965 4.861829 -6.841616 3.652735 .298693 4.474918 2.6766501 4.322191 7.593498"/><path fill="none" stroke="#8bf11e" stroke-linecap="square" stroke-linejoin="round" d="m 10.756005 12.748457 c .152728 -4.9155609 1.209094 -7.1982452 4.861829 -6.8982647 3.652735 .298693 4.474918 2.7332988 4.323464 7.6501467"/><rect width="14" height="9.012" x="8.348" y="13.566" fill="#a4f11e" stroke="#c4a000" stroke-linecap="square" rx=".846" ry="1"/></svg>